<svg width="315" height="408" viewBox="0 0 315 408" fill="none" xmlns="http://www.w3.org/2000/svg">
<path d="M176.696 -78.4166C203.267 -84.0754 230.733 -84.0754 257.304 -78.4166C282.91 -72.9635 307.142 -62.371 328.535 -47.2804L334.86 -42.8186C354.475 -28.9822 371.344 -11.6168 384.606 8.39085L394.656 23.5519C406.823 41.908 415.768 62.2067 421.104 83.5731L427.358 108.616C432.462 129.054 434.195 150.189 432.487 171.186L430.259 198.577C428.525 219.897 423.267 240.783 414.701 260.383L405.644 281.104C396.465 302.106 383.627 321.31 367.73 337.82L358.704 347.195C341.261 365.311 320.454 379.852 297.447 390.007L294.056 391.503C269.78 402.218 243.536 407.752 217 407.752C190.464 407.752 164.22 402.218 139.944 391.503L136.553 390.007C113.546 379.852 92.7389 365.311 75.296 347.195L66.2698 337.82C50.3725 321.31 37.5351 302.106 28.356 281.104L19.2993 260.383C10.7325 240.783 5.47512 219.897 3.741 198.577L1.51312 171.186C-0.194682 150.189 1.5378 129.054 6.64217 108.616L12.8963 83.5731C18.2324 62.2067 27.1769 41.9081 39.3443 23.5519L49.3938 8.39088C62.6559 -11.6168 79.525 -28.9822 99.1399 -42.8186L105.465 -47.2804C126.858 -62.371 151.09 -72.9635 176.696 -78.4166Z" fill="#1D2629"/>
</svg>
