<svg width="311" height="300" viewBox="0 0 311 300" fill="none" xmlns="http://www.w3.org/2000/svg">
<path d="M53.696 4.58341C80.2674 -1.07541 107.733 -1.07541 134.304 4.5834C159.91 10.0365 184.142 20.629 205.535 35.7196L211.86 40.1814C231.475 54.0178 248.344 71.3832 261.606 91.3909L271.656 106.552C283.823 124.908 292.768 145.207 298.104 166.573L304.358 191.616C309.462 212.054 311.195 233.189 309.487 254.186L307.259 281.577C305.525 302.897 300.267 323.783 291.701 343.383L282.644 364.104C273.465 385.106 260.627 404.31 244.73 420.82L235.704 430.195C218.261 448.311 197.454 462.852 174.447 473.007L171.056 474.503C146.78 485.218 120.536 490.752 94 490.752C67.4643 490.752 41.2203 485.218 16.9439 474.503L13.5532 473.007C-9.45399 462.852 -30.2611 448.311 -47.704 430.195L-56.7302 420.82C-72.6275 404.31 -85.4649 385.106 -94.644 364.104L-103.701 343.383C-112.267 323.783 -117.525 302.897 -119.259 281.577L-121.487 254.186C-123.195 233.189 -121.462 212.054 -116.358 191.616L-110.104 166.573C-104.768 145.207 -95.8231 124.908 -83.6557 106.552L-73.6062 91.3909C-60.3441 71.3832 -43.475 54.0178 -23.8601 40.1814L-17.535 35.7196C3.85782 20.629 28.0904 10.0365 53.696 4.58341Z" fill="white"/>
</svg>
